<?xml version="1.0" encoding="UTF-8"?>
<svg width="200" height="200" viewBox="0 0 200 200" fill="none" xmlns="http://www.w3.org/2000/svg">
  <!-- 中国风云纹图案 -->
  <path d="M20,20 Q50,0 80,20 T140,20 T200,20 M20,60 Q50,40 80,60 T140,60 T200,60 M20,100 Q50,80 80,100 T140,100 T200,100 M20,140 Q50,120 80,140 T140,140 T200,140 M20,180 Q50,160 80,180 T140,180 T200,180" stroke="#8B6E4F" stroke-width="2" fill="none" opacity="0.8"/>
  
  <!-- 装饰线条 -->
  <rect x="160" y="20" width="20" height="160" rx="10" fill="#8B6E4F" opacity="0.2"/>
  
  <!-- 文字装饰 - 翻译 -->
  <text x="50" y="100" font-family="SimSun, serif" font-size="60" fill="#8B6E4F" opacity="0.15" transform="rotate(-10, 50, 100)">译</text>
</svg> 