<svg width="200" height="200" viewBox="0 0 200 200" fill="none" xmlns="http://www.w3.org/2000/svg">
  <path d="M100 180C144.183 180 180 144.183 180 100C180 55.8172 144.183 20 100 20C55.8172 20 20 55.8172 20 100C20 144.183 55.8172 180 100 180Z" fill="#F5F5F5"/>
  <path d="M100 140C122.091 140 140 122.091 140 100C140 77.9086 122.091 60 100 60C77.9086 60 60 77.9086 60 100C60 122.091 77.9086 140 100 140Z" fill="#EEEEEE"/>
  <path d="M90 85H110V115H90V85Z" fill="#DDDDDD"/>
  <path d="M85 70H115V80H85V70Z" fill="#DDDDDD"/>
  <path d="M80 120H120V130H80V120Z" fill="#DDDDDD"/>
  <path d="M75 100H125V110H75V100Z" fill="#DDDDDD"/>
</svg> 