<?xml version="1.0" encoding="UTF-8"?>
<svg width="120" height="120" viewBox="0 0 120 120" fill="none" xmlns="http://www.w3.org/2000/svg">
  <circle cx="60" cy="60" r="50" fill="#F5F7FA"/>
  <path d="M48,45C48,36.16,55.16,29,64,29s16,7.16,16,16s-7.16,16-16,16S48,53.84,48,45z M80,61l14,14l-6,6L74,67c-3.02,1.91-6.39,3-10,3c-10.48,0-19-8.52-19-19s8.52-19,19-19s19,8.52,19,19c0,3.61-1.09,6.98-3,10z" fill="#8B6E4F" fill-opacity="0.3"/>
  <path d="M52.71,75.29C53.1,74.9,53.1,74.27,52.71,73.88L50.83,72H70C70.55,72,71,71.55,71,71C71,70.45,70.55,70,70,70H50.83L52.71,68.12C53.1,67.73,53.1,67.1,52.71,66.71C52.32,66.32,51.69,66.32,51.3,66.71L47.71,70.29C47.61,70.39,47.5,70.5,47.42,70.59C47.32,70.79,47.21,71.22,47.42,71.41L51.3,75.29C51.69,75.68,52.32,75.68,52.71,75.29Z" fill="#8B6E4F" fill-opacity="0.7"/>
  <path d="M68.29,66.71C67.9,67.1,67.9,67.73,68.29,68.12L70.17,70H51C50.45,70,50,70.45,50,71C50,71.55,50.45,72,51,72H70.17L68.29,73.88C67.9,74.27,67.9,74.9,68.29,75.29C68.68,75.68,69.31,75.68,69.7,75.29L73.29,71.71C73.39,71.61,73.5,71.5,73.58,71.41C73.68,71.21,73.79,70.78,73.58,70.59L69.7,66.71C69.31,66.32,68.68,66.32,68.29,66.71Z" fill="#8B6E4F" fill-opacity="0.7"/>
</svg> 