<?xml version="1.0" encoding="UTF-8"?>
<svg width="24" height="24" viewBox="0 0 24 24" fill="none" xmlns="http://www.w3.org/2000/svg">
  <!-- 卷轴主体 -->
  <path d="M5,7 C5,5.5 6,4 8,4 L16,4 C18,4 19,5.5 19,7 L19,17 C19,18.5 18,20 16,20 L8,20 C6,20 5,18.5 5,17 L5,7 Z" stroke="#8B6E4F" stroke-width="1.8" fill="none" stroke-linejoin="round"/>
  <!-- 卷轴上下卷边 -->
  <path d="M5,7 C5,7 7,8 12,8 C17,8 19,7 19,7" stroke="#8B6E4F" stroke-width="1.5" stroke-linecap="round"/>
  <path d="M5,17 C5,17 7,16 12,16 C17,16 19,17 19,17" stroke="#8B6E4F" stroke-width="1.5" stroke-linecap="round"/>
  <!-- 引号 -->
  <path d="M9,11 C9,11 8,12 9,13 M13,11 C13,11 12,12 13,13" stroke="#8B6E4F" stroke-width="1.5" stroke-linecap="round"/>
  <!-- 文字线 -->
  <path d="M8,14.5 L16,14.5" stroke="#8B6E4F" stroke-width="1.2" stroke-linecap="round"/>
</svg> 